Coordinates
version=1
nRows=107
nColumns=6
inDegrees=yes

Units are S.I. units (second, meters, Newtons, ...)
If the header above contains a line with 'inDegrees', this indicates whether rotational values are in degrees (yes) or radians (no).

endheader
time	foot_tx	hip_flexion_r	knee_angle_r	ankle_angle_r	lumbar
     19.90000000	      0.24675976	     54.75690321	    -86.89141465	      5.93567083	    -36.83873547
     19.91000000	      0.24671903	     54.87881030	    -86.88047478	      5.93955983	    -36.76965111
     19.92000000	      0.24667416	     55.01178082	    -86.87114724	      5.94537716	    -36.70119386
     19.93000000	      0.24663685	     55.15556420	    -86.86300404	      5.95202899	    -36.63499048
     19.94000000	      0.24659538	     55.30001728	    -86.86009704	      5.96361010	    -36.58283742
     19.95000000	      0.24655997	     55.45103424	    -86.86116425	      5.97801448	    -36.53964225
     19.96000000	      0.24652690	     55.60259923	    -86.86633224	      5.99576873	    -36.51405610
     19.97000000	      0.24650926	     55.75648179	    -86.87417888	      6.01460677	    -36.50623747
     19.98000000	      0.24648037	     55.90375806	    -86.88830830	      6.03893890	    -36.52641086
     19.99000000	      0.24646259	     56.00492950	    -86.90087800	      6.06670142	    -36.61792937
     20.00000000	      0.24645954	     56.19703792	    -86.92396367	      6.09000787	    -36.63822669
     20.01000000	      0.24645865	     56.32011388	    -86.94543140	      6.12011014	    -36.75374884
     20.02000000	      0.24646499	     56.45555774	    -86.97103061	      6.15131583	    -36.87990822
     20.03000000	      0.24647630	     56.60295305	    -87.00027318	      6.18373615	    -37.01706559
     20.04000000	      0.24648957	     56.76202427	    -87.03235961	      6.21724341	    -37.16561714
     20.05000000	      0.24650176	     56.93258128	    -87.06618955	      6.25150466	    -37.32592875
     20.06000000	      0.24653279	     57.14587600	    -87.09858907	      6.27978758	    -37.46741919
     20.07000000	      0.24654520	     57.33627658	    -87.12960222	      6.31224960	    -37.65646671
     20.08000000	      0.24655947	     57.53591419	    -87.15700613	      6.34251896	    -37.86095707
     20.09000000	      0.24657015	     57.74697617	    -87.18024479	      6.37051007	    -38.07954339
     20.10000000	      0.24657371	     57.97059114	    -87.19905376	      6.39616143	    -38.31200439
     20.11000000	      0.24656961	     58.20834229	    -87.21303582	      6.41900972	    -38.55800489
     20.12000000	      0.24655796	     58.46216435	    -87.22194410	      6.43865129	    -38.81713055
     20.13000000	      0.24653916	     58.73359200	    -87.22597286	      6.45509860	    -39.08900079
     20.14000000	      0.24651469	     59.02371852	    -87.22565546	      6.46866284	    -39.37306658
     20.15000000	      0.24648323	     59.33315856	    -87.22172282	      6.48004694	    -39.66911946
     20.16000000	      0.24644949	     59.66165760	    -87.21451993	      6.48951726	    -39.97730513
     20.17000000	      0.24641077	     60.00932648	    -87.20510269	      6.49816293	    -40.29745838
     20.18000000	      0.24636382	     60.42523756	    -87.19928712	      6.50444717	    -40.57780429
     20.19000000	      0.24631537	     60.80305700	    -87.18776722	      6.51470853	    -40.92956290
     20.20000000	      0.24626224	     61.24872284	    -87.18090626	      6.52364592	    -41.24153447
     20.21000000	      0.24620811	     61.65972678	    -87.17020295	      6.53800820	    -41.62080342
     20.22000000	      0.24615065	     62.17021381	    -87.16778236	      6.55037295	    -41.92662201
     20.23000000	      0.24609529	     62.67428691	    -87.16424541	      6.56766670	    -42.26895485
     20.24000000	      0.24604546	     63.20834895	    -87.16326237	      6.58809375	    -42.60883176
     20.25000000	      0.24600367	     63.77303728	    -87.16416220	      6.61212805	    -42.94429345
     20.26000000	      0.24597145	     64.36787870	    -87.16706916	      6.64035845	    -43.27391479
     20.27000000	      0.24594620	     64.99745338	    -87.17252124	      6.67336544	    -43.59102220
     20.28000000	      0.24592446	     65.66398528	    -87.18113286	      6.71178922	    -43.89095240
     20.29000000	      0.24589829	     66.37574574	    -87.19427922	      6.75615354	    -44.16225028
     20.30000000	      0.24585396	     67.14038264	    -87.21354021	      6.80771922	    -44.39283315
     20.31000000	      0.24578419	     67.96494351	    -87.23954307	      6.86763025	    -44.56913091
     20.32000000	      0.24567895	     68.84246216	    -87.27380072	      6.94035763	    -44.68888638
     20.33000000	      0.24555078	     69.77002045	    -87.31359867	      7.02664267	    -44.74567493
     20.34000000	      0.24541131	     70.73976885	    -87.35731351	      7.12836631	    -44.73842681
     20.35000000	      0.24525240	     71.74591218	    -87.40698486	      7.24992498	    -44.66454447
     20.36000000	      0.24511234	     72.77794459	    -87.45437628	      7.38666778	    -44.53235286
     20.37000000	      0.24496570	     73.83182306	    -87.50690825	      7.54623057	    -44.33944082
     20.38000000	      0.24484752	     74.89987776	    -87.55736525	      7.72393709	    -44.09417159
     20.39000000	      0.24476021	     75.97137387	    -87.60628768	      7.92136190	    -43.80626547
     20.40000000	      0.24471527	     77.04471207	    -87.65025909	      8.13639065	    -43.47767536
     20.41000000	      0.24471244	     78.11338359	    -87.68731821	      8.36813600	    -43.11503663
     20.42000000	      0.24474693	     79.17223420	    -87.71514183	      8.61516725	    -42.72350975
     20.43000000	      0.24481010	     80.22057809	    -87.73287195	      8.87632090	    -42.30285281
     20.44000000	      0.24490406	     81.24206127	    -87.73581647	      9.14810601	    -41.87317383
     20.45000000	      0.24500989	     82.24148890	    -87.72507465	      9.42990247	    -41.42795286
     20.46000000	      0.24512681	     83.20917729	    -87.69919084	      9.71894260	    -40.97968537
     20.47000000	      0.24525018	     84.13625593	    -87.65766309	     10.01339297	    -40.53947688
     20.48000000	      0.24538179	     85.01509286	    -87.60059571	     10.31086648	    -40.11670607
     20.49000000	      0.24552276	     85.83334316	    -87.52903774	     10.60996971	    -39.72487481
     20.50000000	      0.24567651	     86.57022281	    -87.44631514	     10.91135331	    -39.38573853
     20.51000000	      0.24584310	     87.21903652	    -87.35341664	     11.21328860	    -39.10365813
     20.52000000	      0.24601829	     87.76653939	    -87.25277479	     11.51641342	    -38.88814700
     20.53000000	      0.24620845	     88.19782024	    -87.14403425	     11.81970024	    -38.75224570
     20.54000000	      0.24639543	     88.51284824	    -87.02721906	     12.12407670	    -38.68633911
     20.55000000	      0.24657829	     88.71048113	    -86.90003847	     12.42856829	    -38.68540003
     20.56000000	      0.24675273	     88.79859868	    -86.75880539	     12.73148808	    -38.73395502
     20.57000000	      0.24691819	     88.78871328	    -86.59892587	     13.03029671	    -38.81501927
     20.58000000	      0.24707300	     88.69290216	    -86.41612241	     13.32295709	    -38.91195170
     20.59000000	      0.24721581	     88.52219650	    -86.20540854	     13.60684438	    -39.01344778
     20.60000000	      0.24734949	     88.28668430	    -85.96188887	     13.87919609	    -39.11008206
     20.61000000	      0.24746246	     88.00379521	    -85.68323450	     14.13920678	    -39.18460141
     20.62000000	      0.24756699	     87.67995908	    -85.36304572	     14.38246076	    -39.23443043
     20.63000000	      0.24766064	     87.32623115	    -84.99859701	     14.60741397	    -39.25029584
     20.64000000	      0.24774682	     86.94783224	    -84.58674402	     14.81213875	    -39.22966217
     20.65000000	      0.24783441	     86.55265758	    -84.12426716	     14.99345723	    -39.16699055
     20.66000000	      0.24790937	     86.13641045	    -83.61269729	     15.15370424	    -39.06794018
     20.67000000	      0.24799384	     85.70389860	    -83.04989654	     15.28919739	    -38.93149248
     20.68000000	      0.24807227	     85.25293549	    -82.43843525	     15.40199072	    -38.76035798
     20.69000000	      0.24815577	     84.78373250	    -81.77973367	     15.49100216	    -38.55695280
     20.70000000	      0.24823644	     84.29176713	    -81.07751395	     15.55854211	    -38.32719123
     20.71000000	      0.24831695	     83.77378596	    -80.33172115	     15.60360638	    -38.07711385
     20.72000000	      0.24839924	     83.23257513	    -79.54619541	     15.62729463	    -37.80282389
     20.73000000	      0.24847464	     82.65778632	    -78.72385619	     15.63209918	    -37.51753806
     20.74000000	      0.24854232	     82.05182917	    -77.86600187	     15.61815767	    -37.21984395
     20.75000000	      0.24860054	     81.41179298	    -76.97587059	     15.58751363	    -36.91325650
     20.76000000	      0.24865205	     80.74174236	    -76.05503639	     15.54037965	    -36.59433835
     20.77000000	      0.24870390	     80.04160446	    -75.10674430	     15.47797354	    -36.26448616
     20.78000000	      0.24875601	     79.31079321	    -74.13180223	     15.40097081	    -35.92633724
     20.79000000	      0.24880941	     78.54191147	    -73.13221640	     15.31127851	    -35.58931591
     20.80000000	      0.24886533	     77.73170587	    -72.10919059	     15.20969171	    -35.25906009
     20.81000000	      0.24892514	     76.86963987	    -71.06528741	     15.09843596	    -34.94839499
     20.82000000	      0.24898967	     75.95289917	    -70.00202890	     14.97830482	    -34.66240310
     20.83000000	      0.24905481	     74.98258162	    -68.92079092	     14.85013347	    -34.40214722
     20.84000000	      0.24912607	     73.95342427	    -67.82522099	     14.71565400	    -34.17482444
     20.85000000	      0.24920301	     72.87321533	    -66.71786803	     14.57533371	    -33.97410770
     20.86000000	      0.24928787	     71.75213650	    -65.60284975	     14.42992861	    -33.79103270
     20.87000000	      0.24938214	     70.60236165	    -64.48454955	     14.28025708	    -33.61471129
     20.88000000	      0.24948855	     69.43886465	    -63.36646654	     14.12650448	    -33.43093731
     20.89000000	      0.24960783	     68.26532941	    -62.25072746	     13.96943348	    -33.23791487
     20.90000000	      0.24974451	     67.08491782	    -61.13792555	     13.80884637	    -33.03418059
     20.91000000	      0.24989763	     65.89623507	    -60.02864928	     13.64551881	    -32.82302701
     20.92000000	      0.25006880	     64.69898056	    -58.92274868	     13.47950195	    -32.60633442
     20.93000000	      0.25025453	     63.49382925	    -57.81955796	     13.31082101	    -32.38466723
     20.94000000	      0.25045189	     62.28039044	    -56.71888049	     13.13986164	    -32.15939203
     20.95000000	      0.25065487	     61.05627496	    -55.62143279	     12.96799764	    -31.93386062
     20.96000000	      0.25086533	     59.82602779	    -54.52488639	     12.79342816	    -31.70326314
